<?xml version="1.0" encoding="UTF-8" standalone="no"?>
<!-- Created with Inkscape (http://www.inkscape.org/) -->

<svg
   width="140.36058mm"
   height="34.252899mm"
   viewBox="0 0 140.36058 34.252899"
   version="1.1"
   id="svg5"
   inkscape:version="1.2.2 (b0a8486541, 2022-12-01)"
   sodipodi:docname="salitrato.svg"
   xml:space="preserve"
   inkscape:export-filename="salitrato_light.svg"
   inkscape:export-xdpi="96"
   inkscape:export-ydpi="96"
   xmlns:inkscape="http://www.inkscape.org/namespaces/inkscape"
   xmlns:sodipodi="http://sodipodi.sourceforge.net/DTD/sodipodi-0.dtd"
   xmlns="http://www.w3.org/2000/svg"
   xmlns:svg="http://www.w3.org/2000/svg"><sodipodi:namedview
     id="namedview7"
     pagecolor="#ffffff"
     bordercolor="#000000"
     borderopacity="0.25"
     inkscape:showpageshadow="2"
     inkscape:pageopacity="0.0"
     inkscape:pagecheckerboard="0"
     inkscape:deskcolor="#d1d1d1"
     inkscape:document-units="mm"
     showgrid="false"
     inkscape:zoom="16"
     inkscape:cx="154.9375"
     inkscape:cy="179.34375"
     inkscape:window-width="1342"
     inkscape:window-height="704"
     inkscape:window-x="10"
     inkscape:window-y="50"
     inkscape:window-maximized="1"
     inkscape:current-layer="layer1" /><defs
     id="defs2" /><g
     inkscape:label="Layer 1"
     inkscape:groupmode="layer"
     id="layer1"
     transform="translate(-34.912038,-16.185227)"><path
       style="fill:#dbdbdb;fill-opacity:1;stroke:#dbdbdb;stroke-width:4.3905;stroke-opacity:1"
       id="path470"
       d="m 165.96093,196.78947 c 6.06696,-0.47747 12.12453,-1.09458 18.20086,-1.4324 35.53424,-1.97556 71.74322,-2.95039 107.21996,-3.71088 82.57227,-1.77003 165.12694,-1.92134 247.71292,-1.80369 l -2.04287,-1.48297 v 0 c -70.4088,0.67518 -91.39792,1.02923 -163.79398,1.05487 -66.27834,0.0235 -132.54608,-0.77376 -198.82169,-1.06555 -6.79064,-0.0299 -13.95569,0.0502 -20.74634,0.0753 l 12.27114,8.3653 z"
       transform="matrix(0.35155331,0,0,0.33201825,-16.629409,-15.688047)"
       sodipodi:nodetypes="sssccsssccs" /><path
       id="rect1204"
       style="font-variation-settings:normal;opacity:1;fill:#dbdbdb;fill-opacity:1;fill-rule:evenodd;stroke:none;stroke-width:9.12632;stroke-linecap:butt;stroke-linejoin:miter;stroke-miterlimit:4;stroke-dasharray:none;stroke-dashoffset:0;stroke-opacity:1;stop-color:#000000;stop-opacity:1"
       d="m 159.06195,365.52203 -0.002,109.50006 h 124.63532 l 0.002,-109.50006 z m 63.88808,8.95296 c 12.83843,0 22.87838,3.88829 29.67958,11.38664 l -11.33337,6.52683 c -9.00271,-8.88693 -14.41944,-11.38664 -24.59329,-11.38664 -14.29183,0 -20.71384,7.63747 -14.17764,16.80212 4.25843,5.9709 8.84937,8.33152 32.17738,16.24644 23.91151,8.05378 29.62415,10.96954 33.68451,16.66272 12.67625,17.77386 -11.37789,34.99248 -48.43977,34.99248 -15.98747,0 -29.30844,-3.05576 -42.44121,-9.5821 l 0.35676,-14.44191 2.78788,-1.52575 c 6.29534,6.10976 10.31234,9.02546 17.67703,12.2192 9.51133,4.16575 22.05273,6.80373 32.46881,6.80373 21.0744,0 32.50639,-9.44326 24.68276,-20.41306 -4.55553,-6.38748 -11.58978,-10.13634 -33.40952,-17.63469 -18.84736,-6.38748 -26.76334,-10.69153 -31.31887,-17.07901 -9.90333,-13.88583 7.24881,-29.577 32.19896,-29.577 z"
       transform="matrix(0.15798722,0,-0.11267595,0.2743427,63.306161,-84.093073)" /><text
       xml:space="preserve"
       style="font-style:normal;font-variant:normal;font-weight:normal;font-stretch:normal;font-size:12px;line-height:normal;font-family:'CMU Serif';-inkscape-font-specification:'CMU Serif';font-variant-ligatures:normal;font-variant-position:normal;font-variant-caps:normal;font-variant-numeric:normal;font-variant-alternates:normal;font-variant-east-asian:normal;font-feature-settings:normal;font-variation-settings:normal;text-indent:0;text-align:start;text-decoration-line:none;text-decoration-style:solid;text-decoration-color:#000000;letter-spacing:normal;word-spacing:normal;text-transform:none;writing-mode:lr-tb;direction:ltr;text-orientation:mixed;dominant-baseline:auto;baseline-shift:baseline;text-anchor:start;white-space:normal;shape-padding:0;shape-margin:0;opacity:1;vector-effect:none;fill:#dbdbdb;fill-opacity:1;stroke:none;stroke-width:4.1577e-09;stroke-linecap:butt;stroke-linejoin:miter;stroke-miterlimit:4;stroke-dasharray:none;stroke-dashoffset:0;stroke-opacity:1;-inkscape-stroke:none;stop-color:#000000;stop-opacity:1"
       x="180.06194"
       y="309.61731"
       id="text243"
       transform="matrix(3.1891657,0,0,3.1745655,-516.51079,-938.94402)"><tspan
         sodipodi:role="line"
         id="tspan241"
         x="180.06194"
         y="309.61731"
         style="font-style:normal;font-variant:normal;font-weight:normal;font-stretch:normal;font-size:12px;font-family:Z003;-inkscape-font-specification:'Z003, Normal';font-variant-ligatures:normal;font-variant-caps:normal;font-variant-numeric:normal;font-variant-east-asian:normal;fill:#dbdbdb;fill-opacity:1;stroke-width:4.1577e-09">aLitrato</tspan></text></g></svg>
